<?xml version="1.0" encoding="us-ascii" standalone="no"?><svg xmlns="http://www.w3.org/2000/svg" xmlns:xlink="http://www.w3.org/1999/xlink" contentStyleType="text/css" height="465px" preserveAspectRatio="none" style="width:662px;height:465px;background:#FFFFFF;" version="1.1" viewBox="0 0 662 465" width="662px" zoomAndPan="magnify"><defs/><g><!--class episodeEntity--><g id="elem_episodeEntity"><rect codeLine="2" fill="#F1F1F1" height="145.7813" id="episodeEntity" rx="2.5" ry="2.5" style="stroke:#181818;stroke-width:0.5;" width="226" x="274" y="7"/><ellipse cx="354.75" cy="23" fill="#ADD1B2" rx="11" ry="11" style="stroke:#181818;stroke-width:1.0;"/><path d="M358.8594,29 L351.1406,29 L351.1406,16.6094 L358.8594,16.6094 L358.8594,18.7656 L353.5938,18.7656 L353.5938,21.4375 L358.3594,21.4375 L358.3594,23.5938 L353.5938,23.5938 L353.5938,26.8438 L358.8594,26.8438 L358.8594,29 Z " fill="#000000"/><text fill="#000000" font-family="sans-serif" font-size="14" lengthAdjust="spacing" textLength="56" x="375.25" y="27.8467">Episode</text><line style="stroke:#181818;stroke-width:0.5;" x1="275" x2="499" y1="39" y2="39"/><text fill="#000000" font-family="sans-serif" font-size="14" lengthAdjust="spacing" textLength="12" x="280" y="55.9951">id</text><line style="stroke:#181818;stroke-width:1.0;" x1="275" x2="499" y1="63.2969" y2="63.2969"/><text fill="#000000" font-family="sans-serif" font-size="14" lengthAdjust="spacing" textLength="52" x="280" y="80.292">title: str</text><text fill="#000000" font-family="sans-serif" font-size="14" lengthAdjust="spacing" textLength="117" x="280" y="96.5889">number: number</text><text fill="#000000" font-family="sans-serif" font-size="14" lengthAdjust="spacing" textLength="59" x="280" y="112.8857">link: URL</text><text fill="#000000" font-family="sans-serif" font-size="14" lengthAdjust="spacing" textLength="214" x="280" y="129.1826">publication_date: YYYY-MM-DD</text><text fill="#000000" font-family="sans-serif" font-size="14" lengthAdjust="spacing" textLength="187" x="280" y="145.4795">duration_seconds: number</text></g><!--class categoryEntity--><g id="elem_categoryEntity"><rect codeLine="12" fill="#F1F1F1" height="113.1875" id="categoryEntity" rx="2.5" ry="2.5" style="stroke:#181818;stroke-width:0.5;" width="188" x="206" y="214"/><ellipse cx="264.75" cy="230" fill="#ADD1B2" rx="11" ry="11" style="stroke:#181818;stroke-width:1.0;"/><path d="M268.8594,236 L261.1406,236 L261.1406,223.6094 L268.8594,223.6094 L268.8594,225.7656 L263.5938,225.7656 L263.5938,228.4375 L268.3594,228.4375 L268.3594,230.5938 L263.5938,230.5938 L263.5938,233.8438 L268.8594,233.8438 L268.8594,236 Z " fill="#000000"/><text fill="#000000" font-family="sans-serif" font-size="14" lengthAdjust="spacing" textLength="62" x="285.25" y="234.8467">Category</text><line style="stroke:#181818;stroke-width:0.5;" x1="207" x2="393" y1="246" y2="246"/><text fill="#000000" font-family="sans-serif" font-size="14" lengthAdjust="spacing" textLength="12" x="212" y="262.9951">id</text><line style="stroke:#181818;stroke-width:1.0;" x1="207" x2="393" y1="270.2969" y2="270.2969"/><text fill="#000000" font-family="sans-serif" font-size="14" lengthAdjust="spacing" textLength="176" x="212" y="287.292">marker: (single letter A-Z)</text><text fill="#000000" font-family="sans-serif" font-size="14" lengthAdjust="spacing" textLength="131" x="212" y="303.5889">currated_name: str</text><text fill="#000000" font-family="sans-serif" font-size="14" lengthAdjust="spacing" textLength="161" x="212" y="319.8857">organic_names: list[str]</text></g><g id="elem_GMN4"><path d="M6,388 L6,458.5313 A0,0 0 0 0 6,458.5313 L594,458.5313 A0,0 0 0 0 594,458.5313 L594,398 L584,388 L304,388 L300,327.3 L296,388 L6,388 A0,0 0 0 0 6,388 " fill="#FEFFDD" style="stroke:#181818;stroke-width:0.5;"/><path d="M584,388 L584,398 L594,398 L584,388 " fill="#FEFFDD" style="stroke:#181818;stroke-width:0.5;"/><text fill="#000000" font-family="sans-serif" font-size="13" lengthAdjust="spacing" textLength="55" x="12" y="405.0669">Example</text><text fill="#000000" font-family="sans-serif" font-size="13" lengthAdjust="spacing" textLength="63" x="12" y="420.1997">marker: A</text><text fill="#000000" font-family="sans-serif" font-size="13" lengthAdjust="spacing" textLength="306" x="12" y="435.3325">currated_name: Epochen&#252;bergreifende Themen</text><text fill="#000000" font-family="sans-serif" font-size="13" lengthAdjust="spacing" textLength="567" x="12" y="450.4653">organic_names:  [A - Epochen&#252;bergreifende Themen, A: Epochen&#252;bergreifende Themen]</text></g><!--class keywordEntity--><g id="elem_keywordEntity"><rect codeLine="27" fill="#F1F1F1" height="80.5938" id="keywordEntity" rx="2.5" ry="2.5" style="stroke:#181818;stroke-width:0.5;" width="91" x="429.5" y="230"/><ellipse cx="444.5" cy="246" fill="#ADD1B2" rx="11" ry="11" style="stroke:#181818;stroke-width:1.0;"/><path d="M448.6094,252 L440.8906,252 L440.8906,239.6094 L448.6094,239.6094 L448.6094,241.7656 L443.3438,241.7656 L443.3438,244.4375 L448.1094,244.4375 L448.1094,246.5938 L443.3438,246.5938 L443.3438,249.8438 L448.6094,249.8438 L448.6094,252 Z " fill="#000000"/><text fill="#000000" font-family="sans-serif" font-size="14" lengthAdjust="spacing" textLength="59" x="458.5" y="250.8467">Keyword</text><line style="stroke:#181818;stroke-width:0.5;" x1="430.5" x2="519.5" y1="262" y2="262"/><text fill="#000000" font-family="sans-serif" font-size="14" lengthAdjust="spacing" textLength="12" x="435.5" y="278.9951">id</text><line style="stroke:#181818;stroke-width:1.0;" x1="430.5" x2="519.5" y1="286.2969" y2="286.2969"/><text fill="#000000" font-family="sans-serif" font-size="14" lengthAdjust="spacing" textLength="66" x="435.5" y="303.292">name: str</text></g><!--link episodeEntity to categoryEntity--><g id="link_episodeEntity_categoryEntity"><path codeLine="34" d="M350.22,160.69 C343.18,175.94 335.91,191.7 329.15,206.34 " fill="none" id="episodeEntity-categoryEntity" style="stroke:#181818;stroke-width:1.0;"/><line style="stroke:#181818;stroke-width:1.0;" x1="348.4317" x2="355.6949" y1="155.0249" y2="158.3783"/><line style="stroke:#181818;stroke-width:1.0;" x1="347.1742" x2="354.4374" y1="157.7487" y2="161.102"/><line style="stroke:#181818;stroke-width:1.0;" x1="350.3866" x2="353.74" y1="160.3333" y2="153.07"/><line style="stroke:#181818;stroke-width:1.0;" x1="329.017" x2="331.1196" y1="206.6138" y2="216.3903"/><line style="stroke:#181818;stroke-width:1.0;" x1="329.017" x2="320.2204" y1="206.6138" y2="211.3697"/><line style="stroke:#181818;stroke-width:1.0;" x1="329.017" x2="325.67" y1="206.6138" y2="213.88"/><ellipse cx="331.5273" cy="201.1642" fill="none" rx="4" ry="4" style="stroke:#181818;stroke-width:1.0;"/></g><!--link episodeEntity to keywordEntity--><g id="link_episodeEntity_keywordEntity"><path codeLine="35" d="M424.1,160.46 C433.98,181.64 444.34,203.83 453.12,222.62 " fill="none" id="episodeEntity-keywordEntity" style="stroke:#181818;stroke-width:1.0;"/><line style="stroke:#181818;stroke-width:1.0;" x1="418.7076" x2="425.9629" y1="158.3829" y2="155.0124"/><line style="stroke:#181818;stroke-width:1.0;" x1="419.9716" x2="427.2269" y1="161.1037" y2="157.7331"/><line style="stroke:#181818;stroke-width:1.0;" x1="424.0206" x2="420.65" y1="160.3253" y2="153.07"/><line style="stroke:#181818;stroke-width:1.0;" x1="453.1322" x2="461.9555" y1="222.6727" y2="227.3792"/><line style="stroke:#181818;stroke-width:1.0;" x1="453.1322" x2="451.0845" y1="222.6727" y2="232.4608"/><line style="stroke:#181818;stroke-width:1.0;" x1="453.1322" x2="456.52" y1="222.6727" y2="229.92"/><ellipse cx="450.5914" cy="217.2373" fill="none" rx="4" ry="4" style="stroke:#181818;stroke-width:1.0;"/></g><!--link episodeEntity to episodeEntity--><g id="link_episodeEntity_episodeEntity"><path codeLine="36" d="M508.48,63.16 C524.43,66.04 535,71.65 535,80 C535,88.35 524.43,93.96 508.48,96.84 " fill="none" id="episodeEntity-episodeEntity" style="stroke:#181818;stroke-width:1.0;"/><line style="stroke:#181818;stroke-width:1.0;" x1="503.6272" x2="504.7706" y1="66.4906" y2="58.5728"/><line style="stroke:#181818;stroke-width:1.0;" x1="506.5965" x2="507.7398" y1="66.9194" y2="59.0015"/><line style="stroke:#181818;stroke-width:1.0;" x1="508.1579" x2="500.24" y1="63.1034" y2="61.96"/><line style="stroke:#181818;stroke-width:1.0;" x1="508.1579" x2="501.0975" y1="96.8966" y2="103.9784"/><line style="stroke:#181818;stroke-width:1.0;" x1="508.1579" x2="499.3825" y1="96.8966" y2="92.1016"/><line style="stroke:#181818;stroke-width:1.0;" x1="508.1579" x2="500.24" y1="96.8966" y2="98.04"/><ellipse cx="514.0963" cy="96.0391" fill="none" rx="4" ry="4" style="stroke:#181818;stroke-width:1.0;"/><text fill="#000000" font-family="sans-serif" font-size="13" lengthAdjust="spacing" textLength="108" x="541" y="84.5669">linked episode(s)</text></g><!--SRC=[VLBBJiCm4BpxArOzjHB-WTmYcXFqWk00LLKvyP9QyIEo7K7KycVS-36sILf85DK7UptZtHclZJQgsC8YgrLm4XSW0c0VPprrP01AqiGvfvamZGc4w6bZ6vEZJuQL0AribS3BqoF5TPDhLOYedDrB4IdfbGRVRFXwJRHiVCy5B9oLuLhbYp4SNDrJMkbyszagXisyBoDyTRQo3CgM6a5ZZEWXvMyhOel6anhAlHNcwjxvKbXLT1Z9QnNYbfZTsO5r4I5tCJf3IjcdCBL6TX59sQHWLhlYWFRdcovGUbJlQ2N2ym4DMZRHWMqA_6R67QItI-x-D-a1sm_dPTUZge_dM_HtTyfcurS-dJXtnqcFvy-CDEQFZC2a-nKeB-WohDWl]--></g></svg>