<?xml version="1.0" encoding="us-ascii" standalone="no"?><svg xmlns="http://www.w3.org/2000/svg" xmlns:xlink="http://www.w3.org/1999/xlink" contentStyleType="text/css" height="596px" preserveAspectRatio="none" style="width:800px;height:596px;background:#FFFFFF;" version="1.1" viewBox="0 0 800 596" width="800px" zoomAndPan="magnify"><defs/><g><!--class episodeEntity--><g id="elem_episodeEntity"><rect codeLine="2" fill="#F1F1F1" height="145.7813" id="episodeEntity" rx="2.5" ry="2.5" style="stroke:#181818;stroke-width:0.5;" width="226" x="333" y="153"/><ellipse cx="413.75" cy="169" fill="#ADD1B2" rx="11" ry="11" style="stroke:#181818;stroke-width:1.0;"/><path d="M417.8594,175 L410.1406,175 L410.1406,162.6094 L417.8594,162.6094 L417.8594,164.7656 L412.5938,164.7656 L412.5938,167.4375 L417.3594,167.4375 L417.3594,169.5938 L412.5938,169.5938 L412.5938,172.8438 L417.8594,172.8438 L417.8594,175 Z " fill="#000000"/><text fill="#000000" font-family="sans-serif" font-size="14" lengthAdjust="spacing" textLength="56" x="434.25" y="173.8467">Episode</text><line style="stroke:#181818;stroke-width:0.5;" x1="334" x2="558" y1="185" y2="185"/><text fill="#000000" font-family="sans-serif" font-size="14" lengthAdjust="spacing" textLength="12" x="339" y="201.9951">id</text><line style="stroke:#181818;stroke-width:1.0;" x1="334" x2="558" y1="209.2969" y2="209.2969"/><text fill="#000000" font-family="sans-serif" font-size="14" lengthAdjust="spacing" textLength="52" x="339" y="226.292">title: str</text><text fill="#000000" font-family="sans-serif" font-size="14" lengthAdjust="spacing" textLength="117" x="339" y="242.5889">number: number</text><text fill="#000000" font-family="sans-serif" font-size="14" lengthAdjust="spacing" textLength="59" x="339" y="258.8857">link: URL</text><text fill="#000000" font-family="sans-serif" font-size="14" lengthAdjust="spacing" textLength="214" x="339" y="275.1826">publication_date: YYYY-MM-DD</text><text fill="#000000" font-family="sans-serif" font-size="14" lengthAdjust="spacing" textLength="187" x="339" y="291.4795">duration_seconds: number</text></g><g id="elem_GMN3"><path d="M151,6 L151,91.6641 A0,0 0 0 0 151,91.6641 L442,91.6641 L446,152.98 L450,91.6641 L741,91.6641 A0,0 0 0 0 741,91.6641 L741,16 L731,6 L151,6 A0,0 0 0 0 151,6 " fill="#FEFFDD" style="stroke:#181818;stroke-width:0.5;"/><path d="M731,6 L731,16 L741,16 L731,6 " fill="#FEFFDD" style="stroke:#181818;stroke-width:0.5;"/><text fill="#000000" font-family="sans-serif" font-size="13" lengthAdjust="spacing" textLength="569" x="157" y="23.0669">title: A-001: &#196;gyptische Obelisken in Europa, mit Dr. Arnulf Schl&#252;ter (SM&#196;K auf die Ohren)</text><text fill="#000000" font-family="sans-serif" font-size="13" lengthAdjust="spacing" textLength="74" x="157" y="38.1997">number: 35</text><text fill="#000000" font-family="sans-serif" font-size="13" lengthAdjust="spacing" textLength="306" x="157" y="53.3325">link: https://geschichteeuropas.podigee.io/35-35</text><text fill="#000000" font-family="sans-serif" font-size="13" lengthAdjust="spacing" textLength="187" x="157" y="68.4653">publication_date: 2021-07-05</text><text fill="#000000" font-family="sans-serif" font-size="13" lengthAdjust="spacing" textLength="153" x="157" y="83.5981">duration_seconds: 3629</text></g><!--class categoryEntity--><g id="elem_categoryEntity"><rect codeLine="20" fill="#F1F1F1" height="113.1875" id="categoryEntity" rx="2.5" ry="2.5" style="stroke:#181818;stroke-width:0.5;" width="188" x="265" y="360"/><ellipse cx="323.75" cy="376" fill="#ADD1B2" rx="11" ry="11" style="stroke:#181818;stroke-width:1.0;"/><path d="M327.8594,382 L320.1406,382 L320.1406,369.6094 L327.8594,369.6094 L327.8594,371.7656 L322.5938,371.7656 L322.5938,374.4375 L327.3594,374.4375 L327.3594,376.5938 L322.5938,376.5938 L322.5938,379.8438 L327.8594,379.8438 L327.8594,382 Z " fill="#000000"/><text fill="#000000" font-family="sans-serif" font-size="14" lengthAdjust="spacing" textLength="62" x="344.25" y="380.8467">Category</text><line style="stroke:#181818;stroke-width:0.5;" x1="266" x2="452" y1="392" y2="392"/><text fill="#000000" font-family="sans-serif" font-size="14" lengthAdjust="spacing" textLength="12" x="271" y="408.9951">id</text><line style="stroke:#181818;stroke-width:1.0;" x1="266" x2="452" y1="416.2969" y2="416.2969"/><text fill="#000000" font-family="sans-serif" font-size="14" lengthAdjust="spacing" textLength="176" x="271" y="433.292">marker: (single letter A-Z)</text><text fill="#000000" font-family="sans-serif" font-size="14" lengthAdjust="spacing" textLength="131" x="271" y="449.5889">currated_name: str</text><text fill="#000000" font-family="sans-serif" font-size="14" lengthAdjust="spacing" textLength="161" x="271" y="465.8857">organic_names: list[str]</text></g><g id="elem_GMN7"><path d="M6,534 L6,589.3984 A0,0 0 0 0 6,589.3984 L594,589.3984 A0,0 0 0 0 594,589.3984 L594,544 L584,534 L314.99,534 L336.02,473.2 L306.99,534 L6,534 A0,0 0 0 0 6,534 " fill="#FEFFDD" style="stroke:#181818;stroke-width:0.5;"/><path d="M584,534 L584,544 L594,544 L584,534 " fill="#FEFFDD" style="stroke:#181818;stroke-width:0.5;"/><text fill="#000000" font-family="sans-serif" font-size="13" lengthAdjust="spacing" textLength="63" x="12" y="551.0669">marker: A</text><text fill="#000000" font-family="sans-serif" font-size="13" lengthAdjust="spacing" textLength="306" x="12" y="566.1997">currated_name: Epochen&#252;bergreifende Themen</text><text fill="#000000" font-family="sans-serif" font-size="13" lengthAdjust="spacing" textLength="567" x="12" y="581.3325">organic_names:  [A - Epochen&#252;bergreifende Themen, A: Epochen&#252;bergreifende Themen]</text></g><!--class keywordEntity--><g id="elem_keywordEntity"><rect codeLine="34" fill="#F1F1F1" height="80.5938" id="keywordEntity" rx="2.5" ry="2.5" style="stroke:#181818;stroke-width:0.5;" width="91" x="606.5" y="376"/><ellipse cx="621.5" cy="392" fill="#ADD1B2" rx="11" ry="11" style="stroke:#181818;stroke-width:1.0;"/><path d="M625.6094,398 L617.8906,398 L617.8906,385.6094 L625.6094,385.6094 L625.6094,387.7656 L620.3438,387.7656 L620.3438,390.4375 L625.1094,390.4375 L625.1094,392.5938 L620.3438,392.5938 L620.3438,395.8438 L625.6094,395.8438 L625.6094,398 Z " fill="#000000"/><text fill="#000000" font-family="sans-serif" font-size="14" lengthAdjust="spacing" textLength="59" x="635.5" y="396.8467">Keyword</text><line style="stroke:#181818;stroke-width:0.5;" x1="607.5" x2="696.5" y1="408" y2="408"/><text fill="#000000" font-family="sans-serif" font-size="14" lengthAdjust="spacing" textLength="12" x="612.5" y="424.9951">id</text><line style="stroke:#181818;stroke-width:1.0;" x1="607.5" x2="696.5" y1="432.2969" y2="432.2969"/><text fill="#000000" font-family="sans-serif" font-size="14" lengthAdjust="spacing" textLength="66" x="612.5" y="449.292">name: str</text></g><g id="elem_GMN11"><path d="M629,549 L629,574.1328 A0,0 0 0 0 629,574.1328 L793,574.1328 A0,0 0 0 0 793,574.1328 L793,559 L783,549 L710.17,549 L668.43,457.33 L702.17,549 L629,549 A0,0 0 0 0 629,549 " fill="#FEFFDD" style="stroke:#181818;stroke-width:0.5;"/><path d="M783,549 L783,559 L793,559 L783,549 " fill="#FEFFDD" style="stroke:#181818;stroke-width:0.5;"/><text fill="#000000" font-family="sans-serif" font-size="13" lengthAdjust="spacing" textLength="143" x="635" y="566.0669">name: 16. Jahrhundert</text></g><!--link episodeEntity to categoryEntity--><g id="link_episodeEntity_categoryEntity"><path codeLine="45" d="M409.66,305.73 C402.31,321.65 394.69,338.18 387.65,353.43 " fill="none" id="episodeEntity-categoryEntity" style="stroke:#181818;stroke-width:1.0;"/><line style="stroke:#181818;stroke-width:1.0;" x1="407.4333" x2="414.6994" y1="301.0294" y2="304.3767"/><line style="stroke:#181818;stroke-width:1.0;" x1="406.1781" x2="413.4442" y1="303.7542" y2="307.1014"/><line style="stroke:#181818;stroke-width:1.0;" x1="409.3927" x2="412.74" y1="306.3361" y2="299.07"/><line style="stroke:#181818;stroke-width:1.0;" x1="389.9803" x2="382.7204" y1="357.9304" y2="354.5697"/><line style="stroke:#181818;stroke-width:1.0;" x1="391.2406" x2="383.9807" y1="355.208" y2="351.8473"/><line style="stroke:#181818;stroke-width:1.0;" x1="388.0307" x2="384.67" y1="352.6201" y2="359.88"/></g><!--link episodeEntity to keywordEntity--><g id="link_episodeEntity_keywordEntity"><path codeLine="46" d="M530.81,304.61 C555.31,327.03 581.23,350.74 602.78,370.47 " fill="none" id="episodeEntity-keywordEntity" style="stroke:#181818;stroke-width:1.0;"/><line style="stroke:#181818;stroke-width:1.0;" x1="525.0101" x2="530.4113" y1="304.7213" y2="298.8199"/><line style="stroke:#181818;stroke-width:1.0;" x1="527.2231" x2="532.6243" y1="306.7468" y2="300.8454"/><line style="stroke:#181818;stroke-width:1.0;" x1="530.6614" x2="524.76" y1="304.4713" y2="299.07"/><line style="stroke:#181818;stroke-width:1.0;" x1="602.8386" x2="612.7909" y1="370.5187" y2="371.494"/><line style="stroke:#181818;stroke-width:1.0;" x1="602.8386" x2="604.6891" y1="370.5187" y2="380.346"/><line style="stroke:#181818;stroke-width:1.0;" x1="602.8386" x2="608.74" y1="370.5187" y2="375.92"/><ellipse cx="598.4126" cy="366.4678" fill="none" rx="4" ry="4" style="stroke:#181818;stroke-width:1.0;"/></g><!--link episodeEntity to episodeEntity--><g id="link_episodeEntity_episodeEntity"><path codeLine="47" d="M567.48,209.16 C583.43,212.04 594,217.65 594,226 C594,234.35 583.43,239.96 567.48,242.84 " fill="none" id="episodeEntity-episodeEntity" style="stroke:#181818;stroke-width:1.0;"/><line style="stroke:#181818;stroke-width:1.0;" x1="562.6272" x2="563.7706" y1="212.4906" y2="204.5728"/><line style="stroke:#181818;stroke-width:1.0;" x1="565.5965" x2="566.7398" y1="212.9194" y2="205.0015"/><line style="stroke:#181818;stroke-width:1.0;" x1="567.1579" x2="559.24" y1="209.1034" y2="207.96"/><line style="stroke:#181818;stroke-width:1.0;" x1="567.1579" x2="560.0975" y1="242.8966" y2="249.9784"/><line style="stroke:#181818;stroke-width:1.0;" x1="567.1579" x2="558.3825" y1="242.8966" y2="238.1016"/><line style="stroke:#181818;stroke-width:1.0;" x1="567.1579" x2="559.24" y1="242.8966" y2="244.04"/><ellipse cx="573.0963" cy="242.0391" fill="none" rx="4" ry="4" style="stroke:#181818;stroke-width:1.0;"/><text fill="#000000" font-family="sans-serif" font-size="13" lengthAdjust="spacing" textLength="108" x="600" y="230.5669">linked episode(s)</text></g><!--SRC=[VL9DR-8m4BtdLunweb8D0KHNcrjKk6mNLTgsXzsggamy91Q97TaJLQZihJ-hD_vO9-6Z1I9oSCRpyPxViz6GfYLSJ4hjhS8Ba1vm4qysfRS0G2jUX12ySYx723mvtfYgcA6BjdzEvDei8dZyyvlZifhbEf6ahNbHadZeBtzYEXNZCPTLvJOrZuarokzH_WU1iOH0jcp8juon2CD-1EltT5cIzac6S3V3NFi56j069fMpfRo2GXECNHTYPwfy3lT9bgy_21rqxgVhzrkGrHoKvk7CeRdy9c8usWl8Y4eVzNefCezECa9iq7stj4gdY5rjUyEHQ4PETGx2GL-4FqGuQjKvl1xyh5NYrliR7agjMpRc9zjDk_k5T8lwh1slJPeZv4Yrj5ZygvKabMCkL2z65lixiYwLHYTDZidPC7hYolFUvvabiWKpxS3Zu0XeKbgsswm_sAVKePwZKGWF6HPeWYDyU8f1d9suWlWyvFDtSsvn-MgTQhnPRE9sQxuqdmZR5VlNNVWbCvTLJEQeRWmE7_jg9SHgTNG9BJtsxV0mxIq7oQXvMwXssOw_33u1]--></g></svg>