<?xml version="1.0" encoding="us-ascii" standalone="no"?><svg xmlns="http://www.w3.org/2000/svg" xmlns:xlink="http://www.w3.org/1999/xlink" contentStyleType="text/css" height="596px" preserveAspectRatio="none" style="width:800px;height:596px;background:#FFFFFF;" version="1.1" viewBox="0 0 800 596" width="800px" zoomAndPan="magnify"><defs/><g><!--class episodeEntity--><g id="elem_episodeEntity"><rect codeLine="2" fill="#F1F1F1" height="145.7813" id="episodeEntity" rx="2.5" ry="2.5" style="stroke:#181818;stroke-width:0.5;" width="252" x="320" y="153"/><ellipse cx="413.75" cy="169" fill="#ADD1B2" rx="11" ry="11" style="stroke:#181818;stroke-width:1.0;"/><path d="M417.8594,175 L410.1406,175 L410.1406,162.6094 L417.8594,162.6094 L417.8594,164.7656 L412.5938,164.7656 L412.5938,167.4375 L417.3594,167.4375 L417.3594,169.5938 L412.5938,169.5938 L412.5938,172.8438 L417.8594,172.8438 L417.8594,175 Z " fill="#000000"/><text fill="#000000" font-family="sans-serif" font-size="14" lengthAdjust="spacing" textLength="56" x="434.25" y="173.8467">Episode</text><line style="stroke:#181818;stroke-width:0.5;" x1="321" x2="571" y1="185" y2="185"/><text fill="#000000" font-family="sans-serif" font-size="14" lengthAdjust="spacing" textLength="12" x="326" y="201.9951">id</text><line style="stroke:#181818;stroke-width:1.0;" x1="321" x2="571" y1="209.2969" y2="209.2969"/><text fill="#000000" font-family="sans-serif" font-size="14" lengthAdjust="spacing" textLength="52" x="326" y="226.292">title: str</text><text fill="#000000" font-family="sans-serif" font-size="14" lengthAdjust="spacing" textLength="117" x="326" y="242.5889">number: number</text><text fill="#000000" font-family="sans-serif" font-size="14" lengthAdjust="spacing" textLength="59" x="326" y="258.8857">link: URL</text><text fill="#000000" font-family="sans-serif" font-size="14" lengthAdjust="spacing" textLength="240" x="326" y="275.1826">publication_date: str, YYYY-MM-DD</text><text fill="#000000" font-family="sans-serif" font-size="14" lengthAdjust="spacing" textLength="187" x="326" y="291.4795">duration_seconds: number</text></g><g id="elem_GMN3"><path d="M151,6 L151,91.6641 A0,0 0 0 0 151,91.6641 L442,91.6641 L446,152.98 L450,91.6641 L741,91.6641 A0,0 0 0 0 741,91.6641 L741,16 L731,6 L151,6 A0,0 0 0 0 151,6 " fill="#FEFFDD" style="stroke:#181818;stroke-width:0.5;"/><path d="M731,6 L731,16 L741,16 L731,6 " fill="#FEFFDD" style="stroke:#181818;stroke-width:0.5;"/><text fill="#000000" font-family="sans-serif" font-size="13" lengthAdjust="spacing" textLength="569" x="157" y="23.0669">title: A-001: &#196;gyptische Obelisken in Europa, mit Dr. Arnulf Schl&#252;ter (SM&#196;K auf die Ohren)</text><text fill="#000000" font-family="sans-serif" font-size="13" lengthAdjust="spacing" textLength="74" x="157" y="38.1997">number: 35</text><text fill="#000000" font-family="sans-serif" font-size="13" lengthAdjust="spacing" textLength="306" x="157" y="53.3325">link: https://geschichteeuropas.podigee.io/35-35</text><text fill="#000000" font-family="sans-serif" font-size="13" lengthAdjust="spacing" textLength="187" x="157" y="68.4653">publication_date: 2021-07-05</text><text fill="#000000" font-family="sans-serif" font-size="13" lengthAdjust="spacing" textLength="153" x="157" y="83.5981">duration_seconds: 3629</text></g><!--class categoryEntity--><g id="elem_categoryEntity"><rect codeLine="20" fill="#F1F1F1" height="113.1875" id="categoryEntity" rx="2.5" ry="2.5" style="stroke:#181818;stroke-width:0.5;" width="188" x="265" y="360"/><ellipse cx="323.75" cy="376" fill="#ADD1B2" rx="11" ry="11" style="stroke:#181818;stroke-width:1.0;"/><path d="M327.8594,382 L320.1406,382 L320.1406,369.6094 L327.8594,369.6094 L327.8594,371.7656 L322.5938,371.7656 L322.5938,374.4375 L327.3594,374.4375 L327.3594,376.5938 L322.5938,376.5938 L322.5938,379.8438 L327.8594,379.8438 L327.8594,382 Z " fill="#000000"/><text fill="#000000" font-family="sans-serif" font-size="14" lengthAdjust="spacing" textLength="62" x="344.25" y="380.8467">Category</text><line style="stroke:#181818;stroke-width:0.5;" x1="266" x2="452" y1="392" y2="392"/><text fill="#000000" font-family="sans-serif" font-size="14" lengthAdjust="spacing" textLength="12" x="271" y="408.9951">id</text><line style="stroke:#181818;stroke-width:1.0;" x1="266" x2="452" y1="416.2969" y2="416.2969"/><text fill="#000000" font-family="sans-serif" font-size="14" lengthAdjust="spacing" textLength="176" x="271" y="433.292">marker: (single letter A-Z)</text><text fill="#000000" font-family="sans-serif" font-size="14" lengthAdjust="spacing" textLength="126" x="271" y="449.5889">curated_name: str</text><text fill="#000000" font-family="sans-serif" font-size="14" lengthAdjust="spacing" textLength="161" x="271" y="465.8857">organic_names: list[str]</text></g><g id="elem_GMN7"><path d="M6,534 L6,589.3984 A0,0 0 0 0 6,589.3984 L594,589.3984 A0,0 0 0 0 594,589.3984 L594,544 L584,534 L314.99,534 L336.02,473.2 L306.99,534 L6,534 A0,0 0 0 0 6,534 " fill="#FEFFDD" style="stroke:#181818;stroke-width:0.5;"/><path d="M584,534 L584,544 L594,544 L584,534 " fill="#FEFFDD" style="stroke:#181818;stroke-width:0.5;"/><text fill="#000000" font-family="sans-serif" font-size="13" lengthAdjust="spacing" textLength="63" x="12" y="551.0669">marker: A</text><text fill="#000000" font-family="sans-serif" font-size="13" lengthAdjust="spacing" textLength="301" x="12" y="566.1997">curated_name: Epochen&#252;bergreifende Themen</text><text fill="#000000" font-family="sans-serif" font-size="13" lengthAdjust="spacing" textLength="567" x="12" y="581.3325">organic_names:  [A - Epochen&#252;bergreifende Themen, A: Epochen&#252;bergreifende Themen]</text></g><!--class keywordEntity--><g id="elem_keywordEntity"><rect codeLine="34" fill="#F1F1F1" height="80.5938" id="keywordEntity" rx="2.5" ry="2.5" style="stroke:#181818;stroke-width:0.5;" width="91" x="606.5" y="376"/><ellipse cx="621.5" cy="392" fill="#ADD1B2" rx="11" ry="11" style="stroke:#181818;stroke-width:1.0;"/><path d="M625.6094,398 L617.8906,398 L617.8906,385.6094 L625.6094,385.6094 L625.6094,387.7656 L620.3438,387.7656 L620.3438,390.4375 L625.1094,390.4375 L625.1094,392.5938 L620.3438,392.5938 L620.3438,395.8438 L625.6094,395.8438 L625.6094,398 Z " fill="#000000"/><text fill="#000000" font-family="sans-serif" font-size="14" lengthAdjust="spacing" textLength="59" x="635.5" y="396.8467">Keyword</text><line style="stroke:#181818;stroke-width:0.5;" x1="607.5" x2="696.5" y1="408" y2="408"/><text fill="#000000" font-family="sans-serif" font-size="14" lengthAdjust="spacing" textLength="12" x="612.5" y="424.9951">id</text><line style="stroke:#181818;stroke-width:1.0;" x1="607.5" x2="696.5" y1="432.2969" y2="432.2969"/><text fill="#000000" font-family="sans-serif" font-size="14" lengthAdjust="spacing" textLength="66" x="612.5" y="449.292">name: str</text></g><g id="elem_GMN11"><path d="M629,549 L629,574.1328 A0,0 0 0 0 629,574.1328 L793,574.1328 A0,0 0 0 0 793,574.1328 L793,559 L783,549 L710.17,549 L668.43,457.33 L702.17,549 L629,549 A0,0 0 0 0 629,549 " fill="#FEFFDD" style="stroke:#181818;stroke-width:0.5;"/><path d="M783,549 L783,559 L793,559 L783,549 " fill="#FEFFDD" style="stroke:#181818;stroke-width:0.5;"/><text fill="#000000" font-family="sans-serif" font-size="13" lengthAdjust="spacing" textLength="143" x="635" y="566.0669">name: 16. Jahrhundert</text></g><!--link episodeEntity to categoryEntity--><g id="link_episodeEntity_categoryEntity"><path codeLine="45" d="M409.22,306.69 C402.18,321.94 394.91,337.7 388.15,352.34 " fill="none" id="episodeEntity-categoryEntity" style="stroke:#181818;stroke-width:1.0;"/><line style="stroke:#181818;stroke-width:1.0;" x1="409.3866" x2="407.2926" y1="306.3333" y2="296.555"/><line style="stroke:#181818;stroke-width:1.0;" x1="409.3866" x2="418.1874" y1="306.3333" y2="301.585"/><line style="stroke:#181818;stroke-width:1.0;" x1="409.3866" x2="412.74" y1="306.3333" y2="299.07"/><ellipse cx="406.8716" cy="311.7807" fill="none" rx="4" ry="4" style="stroke:#181818;stroke-width:1.0;"/><line style="stroke:#181818;stroke-width:1.0;" x1="389.9766" x2="382.7104" y1="357.9204" y2="354.5734"/><line style="stroke:#181818;stroke-width:1.0;" x1="391.2317" x2="383.9656" y1="355.1956" y2="351.8486"/><line style="stroke:#181818;stroke-width:1.0;" x1="388.017" x2="384.67" y1="352.6138" y2="359.88"/></g><!--link episodeEntity to keywordEntity--><g id="link_episodeEntity_keywordEntity"><path codeLine="46" d="M530.81,304.61 C555.31,327.03 581.23,350.74 602.78,370.47 " fill="none" id="episodeEntity-keywordEntity" style="stroke:#181818;stroke-width:1.0;"/><line style="stroke:#181818;stroke-width:1.0;" x1="530.6614" x2="520.7091" y1="304.4713" y2="303.496"/><line style="stroke:#181818;stroke-width:1.0;" x1="530.6614" x2="528.8109" y1="304.4713" y2="294.644"/><line style="stroke:#181818;stroke-width:1.0;" x1="530.6614" x2="524.76" y1="304.4713" y2="299.07"/><ellipse cx="535.0874" cy="308.5222" fill="none" rx="4" ry="4" style="stroke:#181818;stroke-width:1.0;"/><line style="stroke:#181818;stroke-width:1.0;" x1="602.8386" x2="612.7909" y1="370.5187" y2="371.494"/><line style="stroke:#181818;stroke-width:1.0;" x1="602.8386" x2="604.6891" y1="370.5187" y2="380.346"/><line style="stroke:#181818;stroke-width:1.0;" x1="602.8386" x2="608.74" y1="370.5187" y2="375.92"/><ellipse cx="598.4126" cy="366.4678" fill="none" rx="4" ry="4" style="stroke:#181818;stroke-width:1.0;"/></g><!--link episodeEntity to episodeEntity--><g id="link_episodeEntity_episodeEntity"><path codeLine="47" d="M580.52,209.57 C596.54,212.56 607,218.04 607,226 C607,233.96 596.54,239.44 580.52,242.43 " fill="none" id="episodeEntity-episodeEntity" style="stroke:#181818;stroke-width:1.0;"/><line style="stroke:#181818;stroke-width:1.0;" x1="575.5739" x2="576.7753" y1="212.8553" y2="204.9461"/><line style="stroke:#181818;stroke-width:1.0;" x1="578.5399" x2="579.7413" y1="213.3059" y2="205.3966"/><line style="stroke:#181818;stroke-width:1.0;" x1="580.1293" x2="572.22" y1="209.5014" y2="208.3"/><line style="stroke:#181818;stroke-width:1.0;" x1="580.1293" x2="573.1211" y1="242.4986" y2="249.632"/><line style="stroke:#181818;stroke-width:1.0;" x1="580.1293" x2="571.3189" y1="242.4986" y2="237.768"/><line style="stroke:#181818;stroke-width:1.0;" x1="580.1293" x2="572.22" y1="242.4986" y2="243.7"/><ellipse cx="586.0612" cy="241.5975" fill="none" rx="4" ry="4" style="stroke:#181818;stroke-width:1.0;"/><text fill="#000000" font-family="sans-serif" font-size="13" lengthAdjust="spacing" textLength="108" x="613" y="230.5669">linked episode(s)</text></g><!--SRC=[VL9DR-8m4BtdLunweXA60AAhvXOLBksYbRRjOHTLbOc7n2An8tkY5IgzzMVrnX_RIGAqKDGSdF7Ccu_tncX8qnekfgNsLk45I0_OsjCsz180QCM7489FzkKOWIV75rCL2tJHxi-EN9jL18-_Vx9TLejS9vAqDSzAKflKXJ_yYTbCJ2QCKPLh0HuJQvG_b7eD0cC9WMpPJB1h6uim74ImVKlN9McVP0Y_5fXhlq83si2qShQKNIWqmSJr87QcofTmdsJvzftGGUT-jdsx0rajGMbEpXoQoqzCHkC3Yuoez56_doBtqKb6Y4rrtokjqYbYJzl-Q2oQbAzaX-5m8C8V8XoVvJcw6bxNB76tW1jEIgrRDnj8TfVpAoYaMzMpThmsQOwG8zNKOl6tPfBKhL0z6raSzcHTAerE6X_tPhrepf6dWymBIsGBRhIl7GV7TQQbPR7DzfrLIXtg9Hg5y91XWIOuAG_p6CIt6Ls8lo_vz5cQErp_iqurognQ-xmm7vI_yDe71rSzk9MPoofkvgW61iVl_TKAiTcShE0CnhuS3tC2sMmQo94pQbuMghstuo-3_m00]--></g></svg>